<svg xmlns="http://www.w3.org/2000/svg" class="h-full w-full" viewBox="0 0 633 633"><defs><circle id="a" cx="316.5" cy="316.5" r="316.5"/><circle id="c" cx="316.5" cy="316.5" r="316.5"/></defs><g fill="none" fill-rule="evenodd"><mask id="b" fill="#EF4543"><use href="#a"/></mask><use fill="#EF4543" href="#a"/><ellipse cx="89.5" cy="610.5" stroke="#FFF" stroke-width="25" mask="url(#b)" rx="214.5" ry="185.968"/><ellipse cx="543.5" cy="610.5" stroke="#FFF" stroke-width="25" mask="url(#b)" rx="214.5" ry="185.968"/><ellipse cx="89.5" cy="648.5" stroke="#FFF" stroke-width="25" mask="url(#b)" rx="214.5" ry="185.968"/><ellipse cx="543.5" cy="648.5" stroke="#FFF" stroke-width="25" mask="url(#b)" rx="214.5" ry="185.968"/><ellipse cx="89.5" cy="684.5" stroke="#FFF" stroke-width="25" mask="url(#b)" rx="214.5" ry="185.968"/><ellipse cx="543.5" cy="684.5" stroke="#FFF" stroke-width="25" mask="url(#b)" rx="214.5" ry="185.968"/><ellipse cx="316.5" cy="715.5" fill="#EF4543" stroke="#FFF" stroke-width="25" mask="url(#b)" rx="253.5" ry="304"/><circle cx="565.5" cy="89.5" r="102" fill="#EF4543" stroke="#FFF" stroke-width="23" mask="url(#b)"/><path stroke="#FFF" stroke-linecap="round" stroke-linejoin="bevel" stroke-width="12" d="M428 90h-30M431.5 56.5 405 51M432 123l-29 8M443 154l-24 13M465 181l-20 19M492.373 204l-13.834 22.847M525.5 220.5 518 245M565.5 229.5l.5 24.5" mask="url(#b)"/><mask id="d" fill="#EF4543"><use href="#c"/></mask><circle cx="316.5" cy="316.5" r="304" stroke="#FFF" stroke-width="25"/><g mask="url(#d)"><path fill="#FFF" d="M193.322 202.998c8.07 37.277 13.997 73.63 17.782 109.059 3.785 35.428 2.803 75.151-2.947 119.169l61.232-16.664c-15.624-59.046-25.16-97.899-28.606-116.559-3.447-18.66-10.832-51.846-22.155-99.557l-25.306 4.552"/><path fill="#EF4543" stroke="#FFF" stroke-width="13" d="M195.969 183.898s-12.6-22.115-36.454-29.892c-15.903-5.185-34.404-1.49-55.502 11.082 15.902 14.257 29.464 22.566 40.687 24.926 16.833 3.54 51.269-6.116 51.269-6.116Z"/><path fill="#EF4543" stroke="#FFF" stroke-width="13" d="M195.937 184.5s-47.501-8.528-83.21 15.716c-23.805 16.163-34.335 49.28-31.59 99.348 30.337-27.837 52.085-48.465 65.244-61.885 19.739-20.129 49.556-53.178 49.556-53.178ZM195.969 183.898c-.845-21.902 6.033-37.97 20.633-48.205 14.6-10.234 29.752-15.347 45.455-15.34-6.064 21.362-14.45 35.814-25.161 43.357-10.71 7.543-24.353 14.272-40.927 20.188Z"/><path fill="#EF4543" stroke="#FFF" stroke-width="13" d="M195.937 184.5c31.895-30.036 64.129-39.716 96.703-29.04 32.575 10.678 50.777 30.372 54.608 59.083-35.172-5.525-60.441-9.555-75.81-12.088-15.367-2.533-40.534-8.518-75.5-17.954Z"/><path fill="#EF4543" stroke="#FFF" stroke-width="13" d="M195.937 184.5c35.828-7.57 65.558-.248 89.19 21.966 23.631 22.214 37.728 48.992 42.29 80.335-39.756-9.71-68.255-23.834-85.495-42.37a398.222 398.222 0 0 1-45.985-59.93Z"/><path fill="#EF4543" stroke="#FFF" stroke-width="13" d="M195.937 184.5c-33.584 13.812-53.628 35.688-60.134 65.629-6.506 29.941-3.606 63.146 8.699 99.613 27.385-40.275 43.18-69.609 47.387-88 4.207-18.39 5.556-44.138 4.048-77.241Z"/><path stroke="#FFF" stroke-linecap="round" stroke-width="8" d="M197.456 182.301c-14.814 21.61-25.087 41.407-30.82 59.39-5.731 17.984-9.448 33.021-11.148 45.11"/><path stroke="#FFF" stroke-linecap="round" stroke-width="8" d="M195.847 185.673c-24.41 1.725-43.762 9-58.055 21.827-14.294 12.827-24.728 25.434-31.304 37.82M205.543 176.367c29.708-6.73 52.048-8.411 67.019-5.047 14.97 3.365 26.918 8.651 35.842 15.858M197.514 181.438c20.259 9.875 38.228 20.514 53.908 31.917 15.68 11.403 27.373 22.083 35.078 32.04"/></g><g stroke="#FFF" stroke-linecap="round" stroke-linejoin="bevel" stroke-width="11" mask="url(#d)"><path d="m345.091 362.996 97.665 17.221c5.785 2.127 8.155 6.155 7.11 12.082-1.046 5.928-4.705 9.213-10.979 9.856l-105.97-18.686-57.477-59.21c-3.193-4.842-2.939-9.112.762-12.81 3.701-3.698 8.26-4.405 13.675-2.12l55.214 53.667ZM437.018 403.22l-5.036 28.56M291.97 341.479l-10.94 62.043M333.939 384.125l-4.335 27.08M429.252 384.46l.863-6.493M396.253 379.46l.862-6.494M363.247 373.522l.878-6.109M325.238 351.286l4.166-3.901M304.238 331.286l4.165-3.9"/></g></g></svg>