<svg xmlns="http://www.w3.org/2000/svg" version="1.0" viewBox="0 -180 1092 1092"><path fill="#fff" d="M175.6 1.1c-46.1 4.1-71.7 21.5-83.1 56.4-5.5 16.9-6 22.6-5.9 66 .1 25 .7 50.3 1.8 67.5.9 15.1 2 40.6 2.3 56.5.5 25.3.4 30.1-1.1 36.7-2.4 10.8-6.8 19.1-14 26.3-13.1 13-33.8 20.2-64.3 22.1l-10.3.7v42.4l11.5.7c37 2.1 62.1 14.1 72.4 34.7 5.8 11.5 6.5 17.8 5.8 50.9-.3 16.2-1.4 41.6-2.3 56.5-1.1 17.3-1.8 41.4-1.8 67-.1 42.6.3 47 5.5 64.7 7.8 26.5 26.2 44.3 54.1 52.2 15.9 4.5 27.1 5.7 61.1 6.3l31.7.6V670h-22.2c-12.3 0-26.3-.5-31.3-1-25.9-3-40.5-10.9-48-26.3-9.3-19.1-9.8-32.9-5.5-143.2 2.6-66.3.6-90.7-8.9-110-7.6-15.3-18.9-24.5-37.4-30.6-11.7-3.9-12.2-5.4-2.9-7.9 18.6-5.1 32.7-16 40.1-31.1 9.7-19.8 11.6-42.4 9.1-108.9-3.6-95.2-3.5-115.2.7-132 4.7-19.2 16-30.7 35.3-35.9 11.7-3.2 22.6-4.1 47.7-4.1H239V0l-26.7.1c-14.8.1-31.2.6-36.7 1zM854 18.4V37h23.3c12.8 0 27.1.5 31.7 1 30.2 3.7 45 14.9 51 38.6 4.2 16.2 4.4 40.7 1 128.9-1.3 34-1.3 67.2.1 79.1 4 35.8 18.9 55.6 48.7 64.3 4.3 1.3 7.2 2.7 7.2 3.5 0 .9-2.9 2.3-7.2 3.6-25.2 7.5-39.9 22.7-45.8 47.1-3.8 15.8-4.3 26.2-3.6 66.4.3 20.9 1.1 47.9 1.6 60 1.8 38.2 1.7 80.5-.3 91.2-4.1 22.4-13 34.5-30.2 40.9-12.8 4.7-19.1 5.5-49.2 6.1l-28.3.5v39.1l31.8-.6c33.9-.6 45.2-1.8 61-6.3 15.1-4.3 24.5-9.7 34.3-19.4 9.8-9.7 14.3-17 18.8-30.5 6-18.1 6.6-23.9 6.5-66.5 0-24.3-.7-48.5-1.8-65.5-.9-14.9-2-41.2-2.3-58.5-.6-35.2-.1-39.5 5.8-51.2 3.8-7.5 13.2-17.2 21.1-21.6 12.2-7 31-11.7 51.3-12.8l11.5-.7v-42.4l-10.3-.7c-30.4-1.9-51.2-9.1-64.3-22.1-7-6.9-12.5-17.4-14.5-27.3-1.5-8.1-.7-56.4 1.7-95.2 2.4-39.3 2.5-100.2.2-112.7-4.1-21.4-11.5-37.7-22.1-48.5C972.6 14.5 961 8.2 943.4 3.3 933.5.6 933.5.6 893.8.2L854-.1v18.5z"/><path fill="#fff" d="M671.8 42.1c-33.3 4.9-75.2 28.1-118.1 65.6l-10.8 9.4-2.3-1.8c-1.3-1-6.3-5.3-11.2-9.7-20.7-18.4-46.8-36.2-68.9-47.1-64.2-31.6-108.6-17.7-124.9 39-8.9 31.2-8.3 77.3 1.8 125.5 1.3 6.3 2.1 11.8 1.8 12.1-.4.3-7.5 2.9-15.9 5.7-70.9 24.2-118.5 60.7-127.9 98.2-2.6 10.2-1.6 24.3 2.4 34.5 13 33.3 53.7 63.8 115.5 86.8 7.8 2.9 17.1 6.2 20.5 7.2 7.4 2.2 7.1-.3 2.9 21.5-5 26.6-6.1 37.8-6.1 65 0 26.8 1 36.7 5.5 52.7 8.2 29.7 25.2 48.9 48.4 54.8 7.7 2 24.9 1.9 35.4 0 32.8-6.3 73.6-29.8 114.7-66.2l9-8 11.5 10c42 36.7 84.4 59.9 118.4 64.7 34.2 4.8 60-10.2 73.2-42.5 12.3-30.3 13.6-77 3.7-130.5-1.4-7.4-2.8-14.9-3.1-16.5-.5-3-.4-3.1 6.9-5.4 12.9-4.1 35.9-13.2 48.8-19.3 57.7-27.3 89-60.7 89-95 0-11.1-2-18.9-7.3-29.3-12.1-23.2-37.4-44.6-75.6-63.6-14.5-7.2-34.9-15.5-50.1-20.4-6.3-2.1-11.9-4.1-12.3-4.5-.5-.4.3-6.6 1.7-13.6 5.9-29.9 8.1-53.1 7.3-78.7-.3-10.6-1.2-23.3-2.1-28.2-3.5-20.6-10.9-39.1-20.1-50.8-13.7-17.2-36.6-25.3-61.7-21.6zM426.7 78.5c23 7.7 51.7 25.4 78.6 48.4 4.9 4.2 10.3 8.8 12 10.3l3.1 2.6-6.9 7.4c-13.6 14.3-41.2 47.8-49.5 60-2.4 3.5-2.6 3.6-12 4.8-19 2.3-42.9 6.2-61.1 10.1-10.2 2.1-19 3.9-19.6 3.9-1 0-5.4-21.7-8-40-2.4-16.9-2.4-54.2.1-67.4 4.1-22.6 11.4-36.4 22-41.8 8.7-4.5 24.8-3.8 41.3 1.7zm267.2-4.4c26.3 5.6 37.1 56.1 26.5 123.4-4.1 26.2-4.6 28-7.5 27.9-1.3 0-10-1.7-19.4-3.7-16.6-3.5-40.4-7.4-59.5-9.8l-9.5-1.1-9.5-12.6c-11.4-15.2-26-32.7-39.3-47.4l-9.9-10.9 2.3-2.6c4.1-4.4 26.6-22.8 36.7-30 36.8-26.2 67.9-37.8 89.1-33.2zM553.8 174.2c11 12.3 22.8 26.1 26.2 30.8l1.8 2.5h-38.9c-21.4 0-38.9-.2-38.9-.4 0-1.1 37.5-44.9 38.7-45.1 0 0 5.1 5.5 11.1 12.2zm46 66.4 7.3.6 8.9 13.3c17.2 25.7 37.9 61.6 49.8 86.2l5.5 11.6-7.7 15.6C649 397.2 632.4 426 615.8 451l-8.3 12.5-7.5.7c-17 1.5-77.7 2.1-99 .9-25.3-1.5-20.5 1.6-37.1-24.1-14.6-22.7-27.9-45.9-39.7-69.4l-9.5-18.9 6.7-13.6c14.5-29.2 32.3-60.1 48.8-84.9L479 241l5.3-.1c2.8-.1 9.7-.5 15.2-.9 10.8-.9 88.3-.4 100.3.6zm-163.4 6.6c-.4.7-3.6 5.9-7 11.4-8 13-22.1 37.8-26.8 47.2-2 4-4.1 7-4.5 6.7-1.8-1.1-20-53.9-19-55 .8-.7 26.6-6.1 42.9-9 16.4-2.9 15.3-2.8 14.4-1.3zm232.6 2.3c15.7 2.8 37.1 7.3 37.8 7.9.4.5-14.7 45.9-17.3 52l-1.7 3.9-4-7.4c-9.6-17.7-15.7-28.4-24.6-42.9-5.2-8.5-9.7-15.8-9.9-16.2-.4-.8-.9-.9 19.7 2.7zm-315.1 35.7c6.2 18.8 15.3 42.9 22.4 59.4l3.5 8.1-1.8 4.1c-7.7 17.2-20.2 50.8-26 69.7-1.7 5.5-3.2 10.6-3.5 11.2-.5 1.5-23.8-6.3-41.5-13.9-39.2-16.8-69.5-39.5-78.5-58.9-3.5-7.6-4-12.6-2-19.5 7.5-25.7 47-53.3 106.5-74.5 7.4-2.6 13.8-4.8 14.1-4.8.3-.1 3.4 8.6 6.8 19.1zm398.2-14.6c66.6 22.8 112.4 58.6 108.5 84.8-4 26.2-47.5 57.9-108.1 78.6l-14.1 4.8-6.2-19.2c-3.4-10.5-10.6-29.7-15.8-42.6-5.3-12.9-9.6-24.2-9.6-25 0-.8 3.9-11 8.6-22.5 4.8-11.6 11.6-30 15.2-41 7.8-24.2 7.2-22.5 7.7-22.5.3 0 6.5 2.1 13.8 4.6zM694.8 409c7.9 21.9 12.6 37.1 11.5 38-1.6 1.5-57.3 12.6-57.3 11.4 0-.2 2.8-4.7 6.2-10.1 7.3-11.6 21.5-36.3 27.8-48.5 2.5-4.8 4.8-8.4 5.2-8 .3.4 3.3 8.1 6.6 17.2zm-288.6-3c5.4 10.3 19.9 34.9 27.2 46.2 3.6 5.7 3.6 5.8 1.3 5.8-5.7 0-53.4-9.4-54.9-10.9-1-1 10.7-37.1 16.8-51.7 1.8-4.4 1.5-4.8 9.6 10.6zm1.3 79.9c8.8 1.6 23.2 3.9 32 5.1 8.8 1.1 17.4 2.3 19.1 2.5 2.4.4 4.1 2 8 7.3 8.3 11.3 25.2 32.1 35.8 44.1 5.6 6.2 11.9 13.4 14.1 15.9l3.9 4.5-5.9 5.4c-21.4 19.4-48 38.1-68 47.8-29.1 14.2-49.5 17-62.8 8.5-10-6.3-17.5-23.2-20.6-46.3-3.2-23.2.2-70.6 7-98.3l1-4 10.2 2.3c5.6 1.2 17.4 3.6 26.2 5.2zm310.8 6.3c4.2 21.7 5.7 34.5 6.4 54.3 1.5 46.8-8.8 77.3-28 83-21.9 6.5-60-8.4-100.4-39.4-6.5-4.9-16-12.6-21.1-17.1l-9.2-8.2 8.8-9.6c16.8-18.5 35.6-41.4 45.4-55.2 2.3-3.4 5.2-6.2 6.3-6.5 1.1-.2 9.7-1.3 19-2.5 17.7-2.3 47.6-7.6 60.5-10.9 4.1-1 8-1.9 8.5-2 .6-.1 2.3 6.3 3.8 14.1zM581 499c-3.2 5.6-36.7 43.3-38 42.8-1.7-.7-23.8-25.6-35.2-39.8l-3.6-4.5H543c34.2 0 38.7.2 38 1.5z"/><path fill="#fff" d="M595.3 301.8c-.7.5-16.8 16.2-35.7 35-18.9 18.8-35 34.2-35.7 34.2-.6 0-8.7-7.4-17.9-16.5S488.8 338 488.2 338c-1.5 0-14.9 11.5-16.2 14-.5 1-1 2.3-1 2.9 0 1.1 13.6 15.5 37 39.4 10.5 10.7 14 13.7 15.8 13.5 3.2-.4 89.2-86.5 89.2-89.4 0-1.3-3-5-7.9-9.7-4.3-4.2-8-7.7-8.2-7.7-.2 0-1 .4-1.6.8z"/></svg>