<?xml version="1.0" standalone="no"?>
<!DOCTYPE svg PUBLIC "-//W3C//DTD SVG 20010904//EN"
 "http://www.w3.org/TR/2001/REC-SVG-20010904/DTD/svg10.dtd">
<svg version="1.0" xmlns="http://www.w3.org/2000/svg"
 width="512.000000pt" height="512.000000pt" viewBox="0 0 512.000000 512.000000"
 preserveAspectRatio="xMidYMid meet">
<metadata>
Created by potrace 1.11, written by Peter Selinger 2001-2013
</metadata>
<g transform="translate(0.000000,512.000000) scale(0.100000,-0.100000)"
fill="#000000" stroke="none">
<path d="M0 2560 l0 -2560 455 0 455 0 0 1013 c0 985 1 1013 20 1044 10 18 31
40 45 49 35 23 104 22 146 -2 54 -31 69 -73 69 -187 l0 -99 46 62 c55 72 121
131 206 182 291 177 727 133 976 -98 70 -64 167 -196 178 -241 4 -13 9 -23 13
-23 3 0 24 35 46 77 29 57 64 102 130 169 77 77 104 98 185 137 142 70 197 82
380 82 186 0 247 -14 399 -87 92 -44 116 -61 190 -137 97 -98 140 -164 187
-289 62 -167 64 -200 64 -964 l0 -688 465 0 465 0 0 2560 0 2560 -2560 0
-2560 0 0 -2560z"/>
<path d="M1670 1903 c-42 -7 -123 -35 -171 -59 -122 -61 -225 -187 -276 -337
l-28 -82 -5 -713 -5 -712 613 0 613 0 -3 692 c-4 678 -4 695 -26 771 -32 117
-86 212 -162 287 -114 114 -240 161 -424 159 -56 -1 -112 -4 -126 -6z"/>
<path d="M3155 1900 c-213 -43 -366 -190 -437 -421 -22 -73 -22 -84 -28 -777
l-5 -702 615 0 615 0 -2 237 c-2 131 -4 447 -6 703 -3 450 -4 467 -26 540 -34
113 -78 187 -156 265 -82 82 -144 118 -251 145 -81 21 -239 26 -319 10z"/>
</g>
</svg>
